<?xml version="1.0" standalone="no"?>
<!DOCTYPE svg PUBLIC "-//W3C//DTD SVG 20010904//EN"
 "http://www.w3.org/TR/2001/REC-SVG-20010904/DTD/svg10.dtd">
<svg version="1.0" xmlns="http://www.w3.org/2000/svg"
 width="500.000000pt" height="500.000000pt" viewBox="0 0 500.000000 500.000000"
 preserveAspectRatio="xMidYMid meet">
<metadata>
Created by potrace 1.14, written by Peter Selinger 2001-2017
</metadata>
<g transform="translate(0.000000,500.000000) scale(0.100000,-0.100000)"
fill="#000000" stroke="none">
<path d="M1218 4642 c-27 -3 -82 -59 -169 -172 -19 -24 -51 -63 -71 -85 -20
-22 -54 -65 -77 -95 -22 -30 -46 -62 -54 -70 -12 -13 -129 -158 -225 -279 -15
-18 -40 -50 -57 -70 -16 -21 -41 -53 -55 -71 -14 -18 -61 -80 -105 -136 -221
-282 -216 -270 -157 -359 15 -22 47 -67 72 -100 26 -33 61 -82 80 -110 19 -27
40 -56 46 -65 34 -42 384 -512 384 -516 0 -2 8 -12 18 -22 9 -10 24 -29 32
-41 8 -13 25 -35 38 -49 12 -15 49 -65 82 -112 32 -47 65 -92 73 -101 8 -9 25
-32 38 -50 50 -70 243 -324 249 -329 4 -3 13 -16 20 -29 7 -14 39 -59 71 -100
32 -42 76 -98 97 -126 21 -27 63 -84 92 -125 29 -41 59 -81 67 -88 7 -7 13
-17 13 -22 0 -5 6 -15 13 -22 22 -24 83 -102 114 -148 17 -25 40 -54 50 -65
10 -11 22 -27 25 -35 3 -8 28 -42 55 -75 27 -33 59 -76 73 -95 13 -19 29 -40
35 -46 5 -6 19 -23 30 -39 11 -15 40 -54 65 -86 25 -32 73 -96 107 -141 34
-46 73 -95 85 -109 13 -15 39 -46 58 -69 77 -95 97 -106 125 -72 32 39 114
146 178 234 93 127 328 443 369 496 50 65 54 70 128 172 38 52 75 102 83 110
7 8 48 62 90 120 118 160 395 534 404 545 5 6 69 91 143 190 73 99 137 182
142 183 4 2 8 10 8 17 0 7 4 15 8 17 5 2 31 35 60 73 28 39 55 75 60 80 4 6
57 77 117 159 61 82 124 166 140 187 17 21 48 64 70 95 22 31 48 65 58 75 9
10 17 22 17 25 0 6 34 51 63 84 23 25 123 174 129 192 4 10 -5 33 -23 60 -17
24 -42 60 -56 81 -14 20 -30 37 -34 37 -5 0 -9 7 -9 15 0 8 -4 15 -8 15 -4 0
-39 42 -77 93 -38 50 -74 97 -80 104 -12 14 -19 23 -65 83 -19 25 -42 54 -52
65 -9 11 -101 126 -204 255 -103 129 -193 240 -199 246 -5 6 -21 26 -35 44
-30 41 -69 88 -92 114 -10 11 -18 23 -18 28 0 31 -45 32 -1335 32 -710 1
-1302 0 -1317 -2z"/>
</g>
</svg>
