<?xml version="1.0" standalone="no"?>
<!DOCTYPE svg PUBLIC "-//W3C//DTD SVG 20010904//EN"
 "http://www.w3.org/TR/2001/REC-SVG-20010904/DTD/svg10.dtd">
<svg version="1.0" xmlns="http://www.w3.org/2000/svg"
 width="500.000000pt" height="500.000000pt" viewBox="0 0 500.000000 500.000000"
 preserveAspectRatio="xMidYMid meet">
<metadata>
Created by potrace 1.14, written by Peter Selinger 2001-2017
</metadata>
<g transform="translate(0.000000,500.000000) scale(0.100000,-0.100000)"
fill="#000000" stroke="none">
<path d="M1028 4703 c-72 -87 -155 -191 -472 -593 -120 -151 -225 -284 -234
-295 -17 -19 -69 -87 -212 -270 -38 -49 -70 -94 -70 -100 0 -16 6 -25 386
-535 52 -69 97 -129 102 -135 4 -5 37 -49 72 -97 36 -48 172 -231 302 -405
131 -175 244 -327 252 -338 62 -84 592 -795 604 -810 4 -5 28 -37 52 -70 24
-33 47 -61 52 -63 4 -2 8 -7 8 -12 0 -6 210 -292 267 -365 5 -5 54 -71 110
-145 193 -256 223 -295 242 -308 17 -12 28 0 132 140 334 448 391 525 406 546
9 13 24 32 32 42 21 24 52 67 71 96 8 13 47 65 86 116 39 51 153 203 253 338
100 135 191 256 201 270 10 14 170 228 354 475 185 248 350 468 367 490 17 22
89 119 160 215 170 229 291 391 306 410 36 46 82 110 92 127 10 19 -1 44 -34
79 -5 6 -21 26 -35 44 -32 42 -186 239 -209 265 -9 11 -57 72 -106 135 -49 63
-108 138 -131 165 -22 28 -65 81 -94 119 -29 38 -61 79 -71 90 -36 44 -85 104
-109 136 -64 85 -234 296 -248 308 -13 9 -311 12 -1418 12 l-1402 0 -64 -77z"/>
</g>
</svg>
